<svg width="112" height="83" viewBox="0 0 112 83" fill="none" xmlns="http://www.w3.org/2000/svg">
<mask id="mask0_80_125" style="mask-type:alpha" maskUnits="userSpaceOnUse" x="0" y="0" width="112" height="83">
<path d="M0 0H112V83H0V0Z" fill="white"/>
</mask>
<g mask="url(#mask0_80_125)">
<path d="M52.9303 8.36428C51.2787 8.6836 49.7139 9.73032 48.7836 11.1483C48.4734 11.6161 47.8821 12.8409 47.9325 12.9003C47.9542 12.9151 48.2858 13.0117 48.6825 13.1155C49.5263 13.3307 50.8964 14.0137 51.5959 14.5558C52.2594 15.068 53.1897 16.0851 53.6225 16.7678C53.8242 17.0871 54.0119 17.347 54.0479 17.347C54.084 17.347 54.2713 17.0871 54.4734 16.7754C54.9348 16.0404 55.8003 15.1051 56.5286 14.5482C57.3003 13.9543 58.5262 13.3458 59.4134 13.1155C59.8101 13.0117 60.149 12.9151 60.1634 12.8928C60.2498 12.8113 59.4204 11.2744 59.0023 10.7399C57.5311 8.85443 55.1585 7.93389 52.9303 8.36428Z" fill="#BF3030"/>
<path d="M66.5526 8.38663C66.1993 8.5798 62.3412 12.6628 62.406 12.7666C62.435 12.8185 62.7522 12.9076 63.1055 12.967C63.4662 13.0265 63.9711 13.1451 64.2449 13.2269L64.7281 13.3829L66.2932 11.7347C67.1513 10.8289 67.9157 9.99019 67.9805 9.85648C68.4637 8.95073 67.4325 7.88924 66.5526 8.38663Z" fill="#C4C4C4"/>
<path d="M45.2931 15.1198C44.1969 15.3573 43.2379 15.8103 42.387 16.5082C41.0744 17.5844 40.1584 19.3736 40.0072 21.1477L39.9638 21.6898H46.4759H52.9877L52.9373 21.1329C52.6849 18.297 50.7594 15.9513 48.0984 15.2236C47.3484 15.0232 45.9927 14.9713 45.2931 15.1198Z" fill="#AAF0D1"/>
<path d="M64.3461 24.0654C64.1801 24.1545 64.0142 24.3325 63.9277 24.5109C63.7978 24.778 63.7834 24.9413 63.7834 26.5895V28.3712H66.5961C69.2788 28.3712 69.4301 28.3636 69.6969 28.2227C69.8845 28.1261 70.0358 27.9701 70.1369 27.7624C70.2739 27.4878 70.2882 27.3616 70.2595 26.5225C70.2378 25.6762 70.2161 25.5425 70.0358 25.1641C69.8051 24.689 69.4591 24.3401 68.9829 24.1098C68.673 23.9613 68.5141 23.9541 66.6321 23.9393C64.7281 23.9169 64.5985 23.9242 64.3461 24.0654Z" fill="#D3ADAD"/>
<path d="M60.4372 15.1198C59.3412 15.3573 58.3819 15.8103 57.5311 16.5082C56.2184 17.5844 55.3028 19.3736 55.1512 21.1477L55.1081 21.6898H55.8003C57.0622 21.6898 57.7762 21.9569 58.4901 22.6846C58.9589 23.1744 59.2474 23.7089 59.3773 24.3473C59.4277 24.5924 59.4565 25.6837 59.4565 27.2278C59.4565 29.5736 59.4638 29.7296 59.6007 30.0043C59.7667 30.3384 60.1777 30.5982 60.5384 30.5982C60.899 30.5982 61.3101 30.3384 61.4757 30.0043C61.6129 29.7296 61.62 29.5736 61.62 27.2278C61.62 25.6837 61.649 24.5924 61.6994 24.3473C61.9589 23.0778 62.9613 22.0462 64.2018 21.7713C64.4252 21.7269 65.3051 21.6898 66.358 21.6898H68.1321L68.0816 21.1329C67.8292 18.297 65.9035 15.9513 63.2425 15.2236C62.4925 15.0232 61.1368 14.9713 60.4372 15.1198Z" fill="#FFF0B3"/>
<path d="M39.3003 24.0506C38.8315 24.2139 38.5142 24.4514 38.2474 24.8299C37.9302 25.2753 37.822 25.758 37.822 26.6785C37.822 27.651 37.9446 27.9851 38.399 28.2226C38.6802 28.3711 38.8027 28.3711 47.9902 28.3711H57.293V26.5895C57.293 24.9412 57.2786 24.778 57.1487 24.5108C57.0552 24.3177 56.9036 24.1619 56.7163 24.0654C56.4348 23.9169 56.3122 23.9169 48.048 23.9169C40.274 23.9241 39.6322 23.9317 39.3003 24.0506Z" fill="#D3ADAD"/>
<path d="M40.4182 30.7096C40.4182 30.9173 40.9374 32.4837 41.2473 33.1963C42.0768 35.1264 43.6416 37.2274 45.2427 38.5563C49.4902 42.09 55.1655 42.7953 60.0261 40.3899C61.6199 39.603 62.8965 38.6454 64.1513 37.2944C65.6801 35.6462 66.7402 33.8199 67.4181 31.6598C67.5623 31.1995 67.6776 30.7763 67.6776 30.7096C67.6776 30.6131 67.4108 30.5983 65.6367 30.5983H63.5887L63.4157 30.9843C62.9469 32.0235 61.692 32.8254 60.5383 32.8254C59.3843 32.8254 58.1297 32.0235 57.6609 30.9843L57.4876 30.5983H48.9493C41.3699 30.5983 40.4182 30.6131 40.4182 30.7096Z" fill="#D3ADAD"/>
<path d="M97.7452 9.86401V41.5362H94.1677V26.6315H77.9631V41.5362H74.3856V9.86401H77.9631V23.3387H94.1677V9.86401H97.7452ZM23.7311 23.6203L36.5683 41.5362H32.3595L21.1425 26.1767L17.9227 29.123V41.5362H14.3451V9.86401H17.9227V25.57L31.8754 9.86401H36.1054L23.7311 23.6203Z" fill="#133949"/>
<path d="M16.0538 64.1872V75.0556H13.1819V49.6317H26.9497V52.2575H16.0538V61.561H26.2909V64.1872H16.0538ZM39.0622 64.4826H33.9096V75.0556H31.0377V49.6317H37.812C40.8415 49.6317 43.0798 50.2288 44.527 51.423C45.9742 52.617 46.6978 54.4139 46.6978 56.8137C46.6978 60.1758 45.0422 62.4481 41.7311 63.6306L48.4376 75.0556H45.0421L39.0622 64.4826ZM33.9096 52.2228V61.9437H37.8457C39.8728 61.9437 41.3594 61.5293 42.3055 60.7003C43.2515 59.8715 43.7245 58.6282 43.7245 56.9704C43.7245 55.2892 43.2431 54.0778 42.2803 53.3359C41.3172 52.5938 39.7715 52.2228 37.6431 52.2228H33.9096ZM70.9224 75.0556H67.9491L64.8746 66.9693H54.9753L51.9345 75.0556H49.029L58.7929 49.5273H61.2088L70.9224 75.0556ZM55.9888 64.3088H63.9792L61.1074 56.431C60.7358 55.434 60.3529 54.211 59.9587 52.7618C59.7108 53.8747 59.3561 55.0978 58.8944 56.431L55.9888 64.3088ZM77.1897 75.0556H74.3178V49.6317H77.1897V65.5802V75.0556ZM97.9003 68.291C97.9003 70.5284 97.112 72.2733 95.5354 73.5254C93.9586 74.7776 91.8188 75.4036 89.1159 75.4036C86.1879 75.4036 83.9355 75.0152 82.3587 74.2383V71.3864C83.3723 71.8271 84.476 72.1749 85.6697 72.4298C86.8636 72.6849 88.0461 72.8125 89.2174 72.8125C91.1319 72.8125 92.5734 72.4386 93.542 71.6907C94.5105 70.943 94.9947 69.9025 94.9947 68.5693C94.9947 67.6882 94.823 66.9665 94.4796 66.4043C94.136 65.8419 93.5616 65.3231 92.7565 64.8478C91.9512 64.3726 90.7264 63.8335 89.0822 63.2307C86.7847 62.3844 85.1433 61.3816 84.158 60.2222C83.1725 59.0628 82.6797 57.5499 82.6797 55.6834C82.6797 53.7242 83.3949 52.1649 84.8253 51.0055C86.2555 49.8462 88.1475 49.2665 90.5013 49.2665C92.9563 49.2665 95.2143 49.7302 97.2752 50.6576L96.3801 53.2315C94.3416 52.3503 92.3594 51.9098 90.4335 51.9098C88.9132 51.9098 87.7251 52.246 86.8692 52.9185C86.0132 53.5909 85.5853 54.5241 85.5853 55.7181C85.5853 56.5992 85.743 57.3209 86.0585 57.8831C86.3738 58.4455 86.9058 58.9614 87.6546 59.4308C88.4036 59.9004 89.5496 60.4193 91.0926 60.9873C93.6827 61.938 95.4648 62.9583 96.439 64.048C97.4132 65.1378 97.9003 66.5521 97.9003 68.291Z" fill="#133949"/>
</g>
</svg>
