<?xml version="1.0" encoding="UTF-8" standalone="no"?>
<svg
   xmlns:dc="http://purl.org/dc/elements/1.1/"
   xmlns:cc="http://creativecommons.org/ns#"
   xmlns:rdf="http://www.w3.org/1999/02/22-rdf-syntax-ns#"
   xmlns:svg="http://www.w3.org/2000/svg"
   xmlns="http://www.w3.org/2000/svg"
   xmlns:sodipodi="http://sodipodi.sourceforge.net/DTD/sodipodi-0.dtd"
   xmlns:inkscape="http://www.inkscape.org/namespaces/inkscape"
   style="isolation:isolate"
   viewBox="489 350.634 382 275"
   width="382pt"
   height="275pt"
   version="1.1"
   id="svg36"
   sodipodi:docname="logo Koh Frais couleur.svg"
   inkscape:version="1.0.2 (e86c870879, 2021-01-15)">
  <metadata
     id="metadata40">
    <rdf:RDF>
      <cc:Work
         rdf:about="">
        <dc:format>image/svg+xml</dc:format>
        <dc:type
           rdf:resource="http://purl.org/dc/dcmitype/StillImage" />
      </cc:Work>
    </rdf:RDF>
  </metadata>
  <sodipodi:namedview
     pagecolor="#ffffff"
     bordercolor="#666666"
     borderopacity="1"
     objecttolerance="10"
     gridtolerance="10"
     guidetolerance="10"
     inkscape:pageopacity="0"
     inkscape:pageshadow="2"
     inkscape:window-width="1245"
     inkscape:window-height="996"
     id="namedview38"
     showgrid="false"
     inkscape:zoom="1"
     inkscape:cx="209.65564"
     inkscape:cy="166.68699"
     inkscape:window-x="35"
     inkscape:window-y="0"
     inkscape:window-maximized="1"
     inkscape:current-layer="g34"
     inkscape:document-rotation="0" />
  <defs
     id="defs5">
    <clipPath
       id="_clipPath_kpUBbVc9kbnDhGJbY2I5f8HhhC2omtbC">
      <rect
         x="489"
         y="350.634"
         width="382"
         height="275"
         id="rect2" />
    </clipPath>
  </defs>
  <g
     clip-path="url(#_clipPath_kpUBbVc9kbnDhGJbY2I5f8HhhC2omtbC)"
     id="g34">
    <mask
       id="_mask_MPwNKL35ArfjtHKH7CCvq3uvqfZAQIlz">
      <path
         d=" M 489 350.634 L 871 350.634 L 871 625.634 L 489 625.634 L 489 350.634 Z "
         fill="white"
         stroke="none"
         id="path7" />
    </mask>
    <path
       d=" M 489 350.634 L 871 350.634 L 871 625.634 L 489 625.634 L 489 350.634 Z "
       fill="none"
       id="path10" />
    <g
       id="g28">
      <path
         d=" M 669.53 378.347 C 663.897 379.405 658.56 382.873 655.387 387.571 C 654.329 389.121 652.312 393.179 652.484 393.376 C 652.558 393.425 653.689 393.745 655.042 394.089 C 657.92 394.802 662.593 397.065 664.979 398.861 C 667.242 400.558 670.415 403.928 671.891 406.19 C 672.579 407.248 673.219 408.109 673.342 408.109 C 673.465 408.109 674.104 407.248 674.793 406.215 C 676.367 403.78 679.319 400.681 681.803 398.836 C 684.435 396.868 688.616 394.852 691.642 394.089 C 692.995 393.745 694.151 393.425 694.2 393.351 C 694.495 393.081 691.666 387.989 690.24 386.218 C 685.222 379.971 677.13 376.921 669.53 378.347 Z "
         fill="rgb(0,0,0)"
         id="path14"
         style="fill:#bf3030;fill-opacity:1" />
      <path
         d=" M 715.992 378.421 C 714.787 379.061 701.628 392.589 701.849 392.933 C 701.948 393.105 703.03 393.4 704.235 393.597 C 705.465 393.794 707.187 394.187 708.121 394.458 L 709.769 394.975 L 715.107 389.514 C 718.034 386.513 720.641 383.734 720.862 383.291 C 722.51 380.29 718.993 376.773 715.992 378.421 Z "
         fill="rgb(0,0,0)"
         id="path16"
         style="fill:#c4c4c4;fill-opacity:1" />
      <path
         d=" M 643.482 400.73 C 639.743 401.517 636.472 403.018 633.57 405.33 C 629.093 408.896 625.969 414.824 625.453 420.702 L 625.305 422.498 L 647.516 422.498 L 669.726 422.498 L 669.554 420.653 C 668.693 411.257 662.126 403.485 653.05 401.074 C 650.492 400.41 645.868 400.238 643.482 400.73 Z "
         fill="rgb(0,0,0)"
         id="path18"
         style="fill:#aaf0d1;fill-opacity:1" />
      <path
         d=" M 708.466 430.369 C 707.9 430.664 707.334 431.254 707.039 431.845 C 706.596 432.73 706.547 433.271 706.547 438.732 L 706.547 444.635 L 716.14 444.635 C 725.29 444.635 725.806 444.61 726.716 444.143 C 727.356 443.823 727.872 443.306 728.217 442.618 C 728.684 441.708 728.733 441.29 728.635 438.51 C 728.561 435.706 728.487 435.263 727.872 434.009 C 727.085 432.435 725.905 431.279 724.281 430.516 C 723.224 430.024 722.682 430 716.263 429.951 C 709.769 429.877 709.327 429.901 708.466 430.369 Z "
         fill="rgb(0,0,0)"
         id="path24"
         style="fill:#d3adad;fill-opacity:1" />
      <path
         d=" M 695.134 400.73 C 691.396 401.517 688.124 403.018 685.222 405.33 C 680.745 408.896 677.622 414.824 677.105 420.702 L 676.958 422.498 L 679.319 422.498 C 683.623 422.498 686.058 423.383 688.493 425.794 C 690.092 427.417 691.076 429.188 691.519 431.303 C 691.691 432.115 691.789 435.731 691.789 440.847 C 691.789 448.619 691.814 449.136 692.281 450.046 C 692.847 451.153 694.249 452.014 695.479 452.014 C 696.709 452.014 698.111 451.153 698.676 450.046 C 699.144 449.136 699.168 448.619 699.168 440.847 C 699.168 435.731 699.267 432.115 699.439 431.303 C 700.324 427.097 703.743 423.679 707.974 422.768 C 708.736 422.621 711.737 422.498 715.328 422.498 L 721.379 422.498 L 721.207 420.653 C 720.346 411.257 713.778 403.485 704.702 401.074 C 702.144 400.41 697.52 400.238 695.134 400.73 Z "
         fill="rgb(0,0,0)"
         id="path20"
         style="fill:#fff0b3;fill-opacity:1" />
      <path
         d=" M 623.042 430.32 C 621.443 430.861 620.361 431.648 619.451 432.902 C 618.369 434.378 618 435.977 618 439.027 C 618 442.249 618.418 443.356 619.968 444.143 C 620.927 444.635 621.345 444.635 652.681 444.635 L 684.41 444.635 L 684.41 438.732 C 684.41 433.271 684.361 432.73 683.918 431.845 C 683.599 431.205 683.082 430.689 682.443 430.369 C 681.483 429.877 681.065 429.877 652.878 429.877 C 626.363 429.901 624.174 429.926 623.042 430.32 Z "
         fill="rgb(0,0,0)"
         id="path22"
         style="fill:#d3adad;fill-opacity:1" />
      <path
         d=" M 626.855 452.383 C 626.855 453.071 628.626 458.261 629.683 460.622 C 632.512 467.017 637.849 473.978 643.31 478.381 C 657.797 490.089 677.154 492.426 693.732 484.456 C 699.168 481.849 703.522 478.676 707.802 474.2 C 713.016 468.739 716.632 462.688 718.944 455.531 C 719.436 454.006 719.829 452.604 719.829 452.383 C 719.829 452.063 718.919 452.014 712.868 452.014 L 705.883 452.014 L 705.293 453.293 C 703.694 456.736 699.414 459.393 695.479 459.393 C 691.543 459.393 687.264 456.736 685.665 453.293 L 685.074 452.014 L 655.952 452.014 C 630.101 452.014 626.855 452.063 626.855 452.383 Z "
         fill="rgb(0,0,0)"
         id="path26"
         style="fill:#d3adad;fill-opacity:1" />
    </g>
    <path
       d=" M 822.381 383.316 L 822.381 488.254 L 810.179 488.254 L 810.179 438.871 L 754.91 438.871 L 754.91 488.254 L 742.708 488.254 L 742.708 383.316 L 754.91 383.316 L 754.91 427.961 L 810.179 427.961 L 810.179 383.316 L 822.381 383.316 L 822.381 383.316 Z  M 569.94 428.894 L 613.724 488.254 L 599.369 488.254 L 561.111 437.364 L 550.129 447.126 L 550.129 488.254 L 537.927 488.254 L 537.927 383.316 L 550.129 383.316 L 550.129 435.354 L 597.718 383.316 L 612.145 383.316 L 569.94 428.894 L 569.94 428.894 Z "
       fill="rgb(0,0,0)"
       id="path30"
       style="fill:#133949;fill-opacity:1" />
    <path
       d="m 543.75468,563.30232 v 36.01 h -9.795 v -84.236 h 46.958 v 8.7 h -37.163 v 30.825 h 34.916 v 8.701 z m 78.475,0.979 h -17.574 v 35.031 h -9.795 v -84.236 h 23.105 v 0 c 10.33267,0 17.967,1.97833 22.903,5.935 v 0 0 c 4.936,3.956 7.404,9.90967 7.404,17.861 v 0 0 c 0,11.13933 -5.64667,18.668 -16.94,22.586 v 0 l 22.874,37.854 h -11.581 z m -17.574,-40.62 v 32.208 h 13.425 v 0 c 6.914,0 11.98433,-1.37333 15.211,-4.12 v 0 0 c 3.22667,-2.746 4.84,-6.86533 4.84,-12.358 v 0 0 c 0,-5.57 -1.642,-9.584 -4.926,-12.042 v 0 0 c -3.28467,-2.45867 -8.55667,-3.688 -15.816,-3.688 v 0 z m 126.24,75.651 h -10.141 l -10.486,-26.792 h -33.764 l -10.371,26.792 h -9.91 l 33.302,-84.582 h 8.24 z m -50.934,-35.607 h 27.253 l -9.795,-26.101 v 0 c -1.26733,-3.30333 -2.57333,-7.35567 -3.918,-12.157 v 0 0 c -0.84533,3.68733 -2.05533,7.73967 -3.63,12.157 v 0 z m 72.31,35.607 h -9.795 v -84.236 h 9.795 v 52.84159 z m 70.638,-22.413 v 0 0 c 0,7.41333 -2.68867,13.19433 -8.066,17.343 v 0 0 c -5.378,4.14867 -12.67633,6.223 -21.895,6.223 v 0 0 c -9.98667,0 -17.669,-1.287 -23.047,-3.861 v 0 -9.449 0 c 3.45733,1.46 7.22167,2.61233 11.293,3.457 v 0 0 c 4.072,0.84533 8.10533,1.268 12.1,1.268 v 0 0 c 6.53,0 11.44667,-1.239 14.75,-3.717 v 0 0 c 3.30333,-2.47733 4.955,-5.92467 4.955,-10.342 v 0 0 c 0,-2.91933 -0.58567,-5.31033 -1.757,-7.173 v 0 0 c -1.172,-1.86333 -3.131,-3.58233 -5.877,-5.157 v 0 0 c -2.74667,-1.57467 -6.924,-3.36067 -12.532,-5.358 v 0 0 c -7.836,-2.804 -13.43433,-6.12667 -16.795,-9.968 v 0 0 c -3.36133,-3.84133 -5.042,-8.854 -5.042,-15.038 v 0 0 c 0,-6.49133 2.43933,-11.65767 7.318,-15.499 v 0 0 c 4.878,-3.84133 11.331,-5.762 19.359,-5.762 v 0 0 c 8.37333,0 16.07467,1.53633 23.104,4.609 v 0 l -3.053,8.528 v 0 c -6.95267,-2.91933 -13.71333,-4.379 -20.282,-4.379 v 0 0 c -5.18533,0 -9.23767,1.114 -12.157,3.342 v 0 0 c -2.91933,2.228 -4.379,5.32 -4.379,9.276 v 0 0 c 0,2.91933 0.538,5.31033 1.614,7.173 v 0 0 c 1.07533,1.86333 2.89,3.57267 5.444,5.128 v 0 0 c 2.55467,1.556 6.46333,3.275 11.726,5.157 v 0 0 c 8.834,3.15 14.91233,6.53033 18.235,10.141 v 0 0 c 3.32267,3.61067 4.984,8.29667 4.984,14.058 z"
       fill="#000000"
       id="path32"
       sodipodi:nodetypes="cccccccccccccccccsscsscsscccccccsscsscsscssccccccccccccccsscssccccccccscsscsscssccsscsscsscsscsscsscsscsscsscsscsscssccsscsscsscsscsscsscsscss"
       style="fill:#133949;fill-opacity:1" />
  </g>
</svg>
